<?xml version="1.0" standalone="no"?>
<!DOCTYPE svg PUBLIC "-//W3C//DTD SVG 20010904//EN"
 "http://www.w3.org/TR/2001/REC-SVG-20010904/DTD/svg10.dtd">
<svg version="1.0" xmlns="http://www.w3.org/2000/svg"
 width="608.000000pt" height="608.000000pt" viewBox="0 0 608.000000 608.000000"
 preserveAspectRatio="xMidYMid meet">
<metadata>
Created by potrace 1.11, written by Peter Selinger 2001-2013
</metadata>
<g transform="translate(0.000000,608.000000) scale(0.100000,-0.100000)"
fill="#000000" stroke="none">
<path d="M1970 5891 c-109 -42 -181 -105 -226 -198 -37 -74 -36 -73 -37 -178
-1 -82 2 -96 32 -158 37 -78 115 -161 178 -192 46 -22 46 -18 23 -140 -5 -27
-12 -68 -15 -90 -2 -22 -6 -49 -9 -60 -8 -41 -23 -138 -31 -195 -2 -19 -7 -47
-10 -62 -6 -24 -9 -42 -20 -118 -4 -25 -7 -45 -20 -125 -8 -48 -5 -43 -36 -48
-15 -3 -46 -15 -70 -27 -134 -68 -213 -189 -223 -340 -3 -50 20 -38 -281 -155
-93 -37 -184 -73 -202 -81 -17 -8 -37 -14 -45 -14 -8 0 -19 -5 -24 -10 -6 -6
-19 -12 -30 -14 -10 -2 -36 -11 -57 -20 -20 -9 -53 -23 -72 -31 -47 -20 -62
-19 -75 5 -27 50 -119 119 -195 145 -83 28 -204 23 -285 -12 -8 -3 -17 -7 -20
-7 -15 -3 -80 -54 -113 -90 -73 -78 -106 -169 -102 -278 6 -141 67 -243 197
-330 117 -79 307 -76 427 6 40 27 116 96 106 96 -4 0 3 12 14 26 28 35 54 119
56 179 l1 50 383 153 383 154 16 -24 c57 -83 180 -155 284 -164 77 -7 181 15
238 51 35 22 70 25 70 5 0 -4 9 -11 19 -16 10 -5 36 -23 58 -40 21 -18 88 -71
148 -118 61 -48 117 -92 125 -99 8 -7 43 -34 78 -61 34 -27 62 -50 62 -52 0
-1 -4 -14 -9 -27 -12 -30 -23 -100 -24 -142 0 -83 43 -192 102 -258 42 -46
146 -119 156 -109 6 6 -3 -96 -10 -108 -2 -3 -6 -27 -9 -55 -4 -27 -11 -72
-16 -100 -5 -27 -12 -70 -15 -95 -3 -25 -8 -53 -11 -62 -3 -9 -7 -32 -9 -50
-2 -18 -6 -49 -9 -68 -4 -19 -8 -48 -11 -65 -2 -16 -6 -39 -8 -50 -9 -43 -20
-120 -19 -128 4 -17 -20 -47 -37 -47 -10 0 -46 -15 -81 -32 -123 -64 -193
-178 -207 -339 -5 -70 2 -108 39 -189 60 -132 207 -223 358 -222 83 1 102 5
176 42 34 16 65 30 69 30 4 0 48 -33 99 -72 86 -69 101 -81 146 -118 10 -8 31
-24 46 -35 15 -11 58 -45 95 -75 37 -30 80 -66 97 -79 26 -21 29 -28 20 -45
-25 -47 -31 -181 -11 -249 16 -54 43 -110 56 -115 4 -2 7 -9 7 -14 0 -6 21
-31 48 -56 201 -189 530 -130 639 115 31 72 34 83 34 163 0 83 -4 101 -42 178
-95 193 -332 278 -529 190 -25 -11 -52 -26 -60 -33 -15 -13 -74 29 -280 196
-19 15 -86 68 -148 118 -62 49 -109 92 -104 95 13 8 30 79 33 136 8 147 -101
317 -242 382 -43 19 -48 25 -45 47 3 14 8 46 11 71 4 25 9 54 11 65 3 11 7 36
9 55 2 19 7 46 10 60 2 13 7 42 10 65 3 22 12 78 20 125 8 47 17 103 20 125 4
22 9 54 12 70 3 17 7 44 9 60 9 70 8 69 86 95 65 22 126 58 163 95 59 58 103
156 112 244 3 31 7 58 8 60 4 4 270 111 554 222 l204 80 28 -33 c15 -18 28
-36 29 -39 0 -9 101 -73 140 -89 98 -40 227 -32 332 21 31 16 59 29 61 29 2 0
15 -9 28 -21 13 -11 38 -31 54 -44 144 -114 403 -319 413 -329 11 -11 10 -23
-4 -71 -54 -188 54 -403 241 -477 283 -112 587 124 542 421 -23 152 -153 295
-307 335 -89 24 -239 1 -299 -45 -13 -11 -29 -19 -36 -19 -6 0 -114 81 -240
180 -125 99 -240 189 -254 199 -25 19 -25 20 -12 58 34 92 19 234 -36 333 -27
48 -94 120 -112 120 -6 0 -11 4 -11 9 0 5 -25 21 -56 36 -41 19 -54 30 -50 43
3 9 10 53 16 97 7 44 14 87 15 96 2 9 6 32 9 50 3 19 7 43 10 54 2 11 7 40 10
65 3 25 8 56 11 70 2 14 7 41 9 60 2 20 7 47 10 60 4 14 8 39 10 55 7 52 17
119 19 135 4 23 17 41 27 35 15 -9 150 52 194 89 87 71 145 202 140 316 -9
200 -180 373 -381 385 -101 6 -221 -33 -288 -93 -36 -33 -100 -112 -90 -112 4
0 3 -6 -2 -12 -19 -24 -41 -106 -44 -163 -5 -86 41 -210 103 -276 33 -36 109
-90 140 -102 10 -3 16 -12 13 -19 -2 -7 -6 -31 -9 -53 -7 -47 -15 -100 -22
-135 -3 -14 -7 -41 -10 -60 -2 -19 -8 -57 -14 -85 -5 -27 -11 -66 -14 -85 -3
-19 -18 -113 -33 -208 -29 -184 -25 -176 -83 -187 -29 -6 -111 -57 -144 -90
-91 -92 -117 -158 -125 -313 -1 -6 -4 -11 -8 -10 -7 2 -100 -32 -208 -77 -16
-7 -68 -27 -115 -45 -47 -18 -103 -41 -125 -50 -22 -10 -51 -21 -65 -25 -14
-4 -38 -13 -55 -21 -70 -31 -160 -64 -173 -64 -8 0 -37 25 -66 55 -28 30 -55
55 -60 55 -4 0 -20 9 -35 19 -101 72 -280 71 -406 -4 -25 -14 -45 -21 -45 -15
0 6 -8 14 -17 17 -9 4 -24 14 -33 22 -21 21 -48 43 -140 116 -41 33 -82 67
-91 75 -9 8 -25 22 -35 30 -152 120 -176 145 -157 164 4 3 8 12 9 19 1 7 5 26
8 42 23 119 -17 265 -97 348 -36 37 -103 86 -139 101 -45 19 -47 23 -38 59 5
18 11 52 14 77 3 25 8 56 11 70 2 13 7 42 10 65 7 48 11 71 29 180 3 17 7 44
10 60 2 17 12 73 20 125 9 52 18 113 22 135 7 48 5 46 46 51 18 2 39 5 46 6 6
1 12 5 12 10 0 4 8 8 18 8 32 0 127 76 165 132 82 120 94 259 35 396 -36 82
-169 198 -249 219 -58 14 -204 11 -249 -6z"/>
</g>
</svg>
