<?xml version="1.0" encoding="utf-8"?>
<!-- Generator: Adobe Illustrator 23.0.1, SVG Export Plug-In . SVG Version: 6.00 Build 0)  -->
<svg version="1.1" xmlns="http://www.w3.org/2000/svg" xmlns:xlink="http://www.w3.org/1999/xlink" x="0px" y="0px"
	 viewBox="0 0 375 195" style="enable-background:new 0 0 375 195;" xml:space="preserve">
<style type="text/css">
	.st0{display:none;}
	.st1{display:inline;}
	.st2{fill-rule:evenodd;clip-rule:evenodd;fill:#FF7604;}
	.st3{fill-rule:evenodd;clip-rule:evenodd;fill:#FFFFFF;}
	.st4{fill:#FFFFFF;}
	.st5{fill:#AAAAAA;}
	.st6{fill:#FF7604;}
</style>
<g id="Layer_2" class="st0">
	<rect class="st1" width="375" height="195"/>
</g>
<g id="Layer_1">
	<path class="st2" d="M265.38,60.69c-0.38-0.3-0.8-0.57-1.23-0.78c-2.86-1.42-6.36-0.68-8.33,1.77c-1.12,1.39-1.63,3.15-1.41,4.94
		c0.21,1.79,1.12,3.4,2.55,4.53c0.38,0.3,0.8,0.56,1.23,0.78c2.86,1.42,6.36,0.68,8.33-1.76c1.05-1.31,1.54-2.93,1.42-4.61
		l12.92-5.11c0.41,0.63,0.9,1.22,1.51,1.71c0.38,0.3,0.8,0.57,1.23,0.78c2.35,1.17,5.13,0.85,7.15-0.65l8.69,6.89
		c-1.26,2.73-0.53,6.09,1.98,8.08c0.38,0.3,0.8,0.57,1.23,0.78c0.21,0.11,0.43,0.17,0.64,0.25l-2.2,13.78
		c-1.53,0.29-2.95,1.09-3.96,2.35c-1.1,1.36-1.35,3.38-1.41,4.67c-0.05,1.08,0.62,2.29,1.04,3.09c0.36,0.67,0.89,1.22,1.51,1.71
		c0.38,0.3,0.8,0.56,1.23,0.78c2.36,1.17,5.14,0.85,7.15-0.65l8.68,6.89c-1.25,2.73-0.53,6.09,1.98,8.08
		c0.38,0.3,0.8,0.57,1.23,0.78c2.86,1.42,6.36,0.68,8.33-1.77c2.32-2.88,1.81-7.13-1.14-9.47c-0.38-0.3-0.8-0.57-1.23-0.78
		c-2.35-1.17-5.13-0.85-7.15,0.65l-8.69-6.89c0.51-1.1,0.72-2.31,0.57-3.55c-0.22-1.79-1.12-3.4-2.55-4.53
		c-0.38-0.3-0.79-0.57-1.23-0.78c-0.35-0.17-0.71-0.32-1.08-0.43l2.17-13.55c1.71-0.21,3.32-1.02,4.43-2.41
		c1.09-1.35,1.53-2.99,1.42-4.6l12.92-5.11c0.41,0.64,0.9,1.22,1.51,1.71c0.38,0.3,0.8,0.57,1.23,0.78
		c2.35,1.17,5.13,0.85,7.14-0.65l8.69,6.89c-1.25,2.73-0.53,6.09,1.98,8.08c0.38,0.3,0.8,0.57,1.23,0.78
		c2.86,1.42,6.36,0.68,8.33-1.76c1.13-1.39,1.63-3.15,1.41-4.94c-0.22-1.79-1.12-3.4-2.55-4.53c-0.38-0.3-0.8-0.57-1.23-0.78
		c-2.36-1.17-5.13-0.85-7.14,0.65l-8.69-6.89c1.26-2.73,0.53-6.09-1.98-8.08c-0.38-0.3-0.8-0.56-1.23-0.78
		c-0.35-0.18-0.72-0.32-1.08-0.43l2.16-13.47c1.74-0.19,3.4-1.01,4.54-2.42c1.13-1.4,1.63-3.15,1.41-4.94
		c-0.21-1.79-1.12-3.4-2.55-4.54c-0.38-0.3-0.8-0.56-1.23-0.78c-2.86-1.42-6.37-0.68-8.34,1.76c-2.32,2.88-1.81,7.13,1.14,9.47
		c0.38,0.3,0.79,0.56,1.23,0.78c0.18,0.09,0.37,0.14,0.55,0.22l-2.2,13.75c-1.53,0.29-2.95,1.09-3.96,2.35
		c-1.07,1.33-1.55,2.98-1.42,4.67l-12.89,5.1c-0.41-0.65-0.91-1.26-1.55-1.77c-0.38-0.3-0.79-0.57-1.23-0.78
		c-2.35-1.17-5.13-0.85-7.15,0.65l-8.69-6.89c1.26-2.74,0.53-6.09-1.98-8.08c-0.38-0.3-0.8-0.56-1.23-0.78
		c-0.35-0.17-0.72-0.32-1.08-0.43l2.15-13.47c1.75-0.19,3.4-1.01,4.54-2.42c2.32-2.88,1.81-7.13-1.14-9.47
		c-0.38-0.3-0.8-0.57-1.23-0.78c-2.86-1.42-6.37-0.68-8.34,1.76c-1.12,1.4-1.63,3.15-1.41,4.94c0.21,1.79,1.12,3.4,2.55,4.53
		c0.38,0.3,0.8,0.57,1.23,0.78c0.18,0.09,0.37,0.14,0.55,0.22l-2.2,13.75c-1.53,0.3-2.95,1.09-3.96,2.35
		c-1.07,1.33-1.55,2.98-1.42,4.67l-12.88,5.09C266.52,61.79,266.01,61.19,265.38,60.69L265.38,60.69z"/>
	<path class="st3" d="M71.97,131.21c-4.59,4.32-11,7.13-17.99,7.13c-17.01,0-26.87-12.78-26.87-25.66
		c0-12.88,9.86-25.66,26.87-25.66c8.02,0,13.87,2.95,18.3,7.46c-2.45,2.86-4.35,6.16-5.54,9.7l-0.08,0.05
		c-2.82-4.33-6.74-7.35-12.68-7.35c-9.16,0-15.8,7.04-15.8,15.8c0,8.76,6.64,15.8,15.8,15.8c5.69,0,9.8-2.88,12.62-7.25
		C67.72,124.86,69.55,128.28,71.97,131.21L71.97,131.21z"/>
	<path class="st4" d="M109.34,137.03h10.47v-48.7h-10.47v5.94h-0.2c-2.72-4.13-8.25-7.24-15.5-7.24c-15.8,0-25.76,13.68-25.76,25.66
		c0,12.58,9.26,25.66,25.26,25.66c6.64,0,12.68-2.82,16-7.24h0.2V137.03L109.34,137.03z M78.95,112.68c0-8.76,7.04-15.8,15.5-15.8
		c8.25,0,15.3,7.04,15.3,15.8c0,8.76-7.04,15.8-15.3,15.8C85.99,128.48,78.95,121.43,78.95,112.68L78.95,112.68z"/>
	<path class="st3" d="M247.08,94.47c2.92-4.53,8.25-7.45,14.89-7.45c10.26,0,18.92,8.55,18.92,20.63v29.38h-10.47v-27.07
		c0-8.86-4.63-12.48-11.57-12.48c-6.74,0-11.98,4.33-11.98,12.28v27.27h-10.47v-5.86c2.62-2.98,4.61-6.5,5.77-10.31
		c2.77-9.13,0.5-19.6-5.77-26.77v-5.77h10.47v6.14H247.08L247.08,94.47z"/>
	<path class="st3" d="M194.63,94.53c4.57-4.53,11.12-7.51,19.33-7.51c17.01,0,26.87,12.78,26.87,25.66
		c0,12.88-9.86,25.66-26.87,25.66c-8.22,0-14.76-2.98-19.34-7.52c2.56-3.16,4.31-6.85,5.28-10.75c2.55,5.01,7.7,8.4,14.06,8.4
		c9.16,0,15.8-7.04,15.8-15.8c0-8.76-6.64-15.8-15.8-15.8c-6.36,0-11.51,3.4-14.06,8.41C198.94,101.35,197.17,97.65,194.63,94.53
		L194.63,94.53z"/>
	<path class="st4" d="M146.37,137.03h10.46v-5.94h0.2c2.52,4.03,9.06,7.24,15.9,7.24c12.68,0,25.36-9.36,25.36-25.66
		c0-16.3-12.68-25.66-25.36-25.66c-6.84,0-13.38,3.22-15.9,7.24h-0.2V73.84h-10.46V137.03L146.37,137.03z M187.22,112.68
		c0,9.06-6.44,15.8-15.2,15.8c-8.75,0-15.2-6.74-15.2-15.8c0-9.06,6.44-15.8,15.2-15.8C180.78,96.88,187.22,103.62,187.22,112.68
		L187.22,112.68z"/>
	<path class="st3" d="M132.34,93.66c1.71-4.03,5.33-6.64,9.56-6.64c0.66,0,1.29,0.05,1.9,0.14V98.8c-1.03-0.76-2.84-1.32-3.81-1.32
		c-3.82,0-7.24,2.92-7.24,7.35v32.2h-10.47v-48.7h9.86v5.33H132.34L132.34,93.66z"/>
	<polygon class="st5" points="33.69,161.03 39.77,161.03 39.77,162.72 31.79,162.72 31.79,149.1 33.69,149.1 33.69,161.03 	"/>
	<polygon class="st5" points="44.49,162.72 42.58,162.72 42.58,149.1 44.49,149.1 44.49,162.72 	"/>
	<polygon class="st5" points="58.36,159.99 58.4,159.99 58.4,149.1 60.3,149.1 60.3,162.72 57.9,162.72 50.7,151.6 50.66,151.6 
		50.66,162.72 48.76,162.72 48.76,149.1 51.24,149.1 58.36,159.99 	"/>
	<polygon class="st5" points="66.48,155.1 66.52,155.1 72.6,149.1 75.23,149.1 68.62,155.33 75.64,162.72 72.91,162.72 
		66.52,155.68 66.48,155.68 66.48,162.72 64.57,162.72 64.57,149.1 66.48,149.1 66.48,155.1 	"/>
	<polygon class="st5" points="80.12,161.03 87.24,161.03 87.24,162.72 78.22,162.72 78.22,149.1 86.95,149.1 86.95,150.77 
		80.12,150.77 80.12,154.85 86.55,154.85 86.55,156.49 80.12,156.49 80.12,161.03 	"/>
	<path class="st5" d="M90.74,149.1h4.68c0.87,0,1.74,0.13,2.62,0.38c0.87,0.26,1.66,0.66,2.37,1.21c0.7,0.55,1.28,1.26,1.71,2.12
		c0.44,0.86,0.66,1.89,0.66,3.1c0,1.17-0.22,2.18-0.66,3.03c-0.44,0.85-1.01,1.56-1.71,2.12c-0.71,0.56-1.49,0.97-2.37,1.25
		c-0.87,0.28-1.74,0.41-2.62,0.41h-4.68V149.1L90.74,149.1z M92.65,161.05h2.39c0.82,0,1.58-0.11,2.28-0.35
		c0.7-0.23,1.3-0.57,1.81-1c0.51-0.44,0.9-0.97,1.18-1.62c0.28-0.64,0.42-1.37,0.42-2.17c0-0.85-0.14-1.59-0.42-2.23
		c-0.28-0.64-0.68-1.18-1.18-1.61c-0.51-0.43-1.11-0.76-1.81-0.98c-0.7-0.22-1.46-0.34-2.28-0.34h-2.39V161.05L92.65,161.05z"/>
	<path class="st5" d="M112.12,149.1h4.68c0.87,0,1.74,0.13,2.62,0.38c0.87,0.26,1.66,0.66,2.37,1.21c0.71,0.55,1.28,1.26,1.71,2.12
		c0.44,0.86,0.65,1.89,0.65,3.1c0,1.17-0.22,2.18-0.65,3.03c-0.44,0.85-1.01,1.56-1.71,2.12c-0.71,0.56-1.49,0.97-2.37,1.25
		c-0.87,0.28-1.74,0.41-2.62,0.41h-4.68V149.1L112.12,149.1z M114.03,161.05h2.39c0.82,0,1.58-0.11,2.28-0.35
		c0.7-0.23,1.3-0.57,1.81-1c0.51-0.44,0.9-0.97,1.18-1.62c0.28-0.64,0.42-1.37,0.42-2.17c0-0.85-0.14-1.59-0.42-2.23
		c-0.28-0.64-0.68-1.18-1.18-1.61c-0.51-0.43-1.11-0.76-1.81-0.98c-0.7-0.22-1.46-0.34-2.28-0.34h-2.39V161.05L114.03,161.05z"/>
	<path class="st5" d="M127.82,162.72h-2.12l5.91-13.62h1.73l5.85,13.62h-2.16l-1.38-3.35h-6.46L127.82,162.72L127.82,162.72z
		 M129.86,157.7h5.1l-2.54-6.39L129.86,157.7L129.86,157.7z"/>
	<polygon class="st5" points="145.53,162.72 143.62,162.72 143.62,150.77 139.25,150.77 139.25,149.1 149.89,149.1 149.89,150.77 
		145.53,150.77 145.53,162.72 	"/>
	<path class="st5" d="M152.07,162.72h-2.12l5.91-13.62h1.73l5.85,13.62h-2.16l-1.39-3.35h-6.46L152.07,162.72L152.07,162.72z
		 M154.11,157.7h5.1l-2.54-6.39L154.11,157.7L154.11,157.7z"/>
	<path class="st5" d="M171.58,149.1h4.16c0.73,0,1.4,0.07,2,0.22c0.6,0.15,1.12,0.38,1.54,0.68c0.42,0.31,0.75,0.7,0.98,1.17
		c0.23,0.48,0.35,1.05,0.35,1.71c0,0.68-0.12,1.26-0.38,1.75c-0.25,0.49-0.6,0.89-1.04,1.19c-0.44,0.31-0.97,0.54-1.58,0.68
		c-0.61,0.15-1.27,0.22-1.97,0.22h-2.16v5.98h-1.9V149.1L171.58,149.1z M173.48,155.12h2.02c0.46,0,0.89-0.04,1.28-0.13
		c0.39-0.08,0.73-0.21,1.01-0.39c0.28-0.17,0.5-0.4,0.65-0.68c0.15-0.28,0.23-0.63,0.23-1.04c0-0.41-0.08-0.75-0.24-1.03
		c-0.16-0.28-0.38-0.5-0.65-0.67c-0.28-0.17-0.61-0.29-0.99-0.37c-0.38-0.07-0.8-0.11-1.25-0.11h-2.06V155.12L173.48,155.12z"/>
	<polygon class="st5" points="185.9,161.03 191.98,161.03 191.98,162.72 183.99,162.72 183.99,149.1 185.9,149.1 185.9,161.03 	"/>
	<path class="st5" d="M195.34,162.72h-2.12l5.91-13.62h1.73l5.85,13.62h-2.15l-1.39-3.35h-6.46L195.34,162.72L195.34,162.72z
		 M197.38,157.7h5.1l-2.54-6.39L197.38,157.7L197.38,157.7z"/>
	<polygon class="st5" points="213.05,162.72 211.14,162.72 211.14,150.77 206.77,150.77 206.77,149.1 217.41,149.1 217.41,150.77 
		213.05,150.77 213.05,162.72 	"/>
	<polygon class="st5" points="222.09,162.72 220.18,162.72 220.18,149.1 228.69,149.1 228.69,150.77 222.09,150.77 222.09,155 
		228.27,155 228.27,156.64 222.09,156.64 222.09,162.72 	"/>
	<path class="st5" d="M245.82,155.89c0,1.05-0.18,2.02-0.55,2.9c-0.37,0.88-0.87,1.64-1.51,2.27c-0.64,0.63-1.41,1.13-2.29,1.48
		c-0.89,0.35-1.85,0.53-2.89,0.53c-1.04,0-2-0.18-2.88-0.53c-0.88-0.35-1.64-0.85-2.28-1.48c-0.64-0.64-1.14-1.39-1.5-2.27
		c-0.36-0.88-0.54-1.84-0.54-2.9c0-1.06,0.18-2.04,0.54-2.91c0.36-0.88,0.86-1.63,1.5-2.25c0.64-0.62,1.4-1.11,2.28-1.45
		c0.88-0.35,1.84-0.52,2.88-0.52c1.04,0,2,0.17,2.89,0.52c0.88,0.35,1.65,0.83,2.29,1.45c0.64,0.62,1.14,1.37,1.51,2.25
		C245.63,153.85,245.82,154.83,245.82,155.89L245.82,155.89z M243.76,155.89c0-0.74-0.12-1.45-0.37-2.11
		c-0.24-0.66-0.59-1.24-1.04-1.74c-0.45-0.5-0.99-0.9-1.63-1.18c-0.64-0.29-1.35-0.43-2.14-0.43c-0.78,0-1.49,0.14-2.13,0.43
		c-0.64,0.29-1.17,0.68-1.62,1.18c-0.44,0.5-0.78,1.08-1.03,1.74c-0.24,0.66-0.37,1.36-0.37,2.11c0,0.76,0.12,1.47,0.37,2.14
		c0.24,0.67,0.59,1.25,1.04,1.74c0.45,0.49,0.99,0.88,1.62,1.16c0.63,0.28,1.33,0.42,2.12,0.42c0.78,0,1.49-0.14,2.14-0.42
		c0.64-0.28,1.19-0.67,1.63-1.16c0.45-0.49,0.8-1.08,1.04-1.74C243.63,157.36,243.76,156.65,243.76,155.89L243.76,155.89z"/>
	<path class="st5" d="M251.28,162.72h-1.9V149.1h4.37c0.65,0,1.28,0.07,1.87,0.2c0.59,0.14,1.11,0.35,1.55,0.64s0.79,0.68,1.05,1.16
		c0.26,0.48,0.39,1.07,0.39,1.76c0,1-0.31,1.81-0.92,2.42c-0.62,0.62-1.41,1.01-2.39,1.17l3.81,6.25h-2.31l-3.46-6.06h-2.04V162.72
		L251.28,162.72z M251.28,155.06h2.19c0.45,0,0.87-0.04,1.25-0.12c0.38-0.08,0.72-0.2,1.01-0.38c0.29-0.17,0.52-0.4,0.68-0.67
		s0.25-0.62,0.25-1.03c0-0.41-0.08-0.75-0.25-1.03c-0.17-0.28-0.39-0.5-0.66-0.66c-0.28-0.17-0.6-0.28-0.97-0.36
		c-0.37-0.07-0.76-0.11-1.17-0.11h-2.33V155.06L251.28,155.06z"/>
	<polygon class="st5" points="269.19,159.56 269.23,159.56 273.25,149.1 276.22,149.1 276.22,162.72 274.31,162.72 274.31,151.33 
		274.27,151.33 269.75,162.72 268.54,162.72 264.04,151.33 264,151.33 264,162.72 262.15,162.72 262.15,149.1 265.11,149.1 
		269.19,159.56 	"/>
	<path class="st6" d="M347.7,30.6h-0.9v-5.7h-2.1v-0.8h5.1v0.8h-2.1V30.6z"/>
	<path class="st6" d="M354.4,29l1.9-5h1.4v6.5h-0.9v-5.4l-2.2,5.4H354l-2.1-5.4v5.4H351V24h1.4L354.4,29z"/>
</g>
</svg>
