<?xml version="1.0" standalone="no"?>
<!DOCTYPE svg PUBLIC "-//W3C//DTD SVG 20010904//EN"
 "http://www.w3.org/TR/2001/REC-SVG-20010904/DTD/svg10.dtd">
<svg version="1.0" xmlns="http://www.w3.org/2000/svg"
 width="16.000000pt" height="16.000000pt" viewBox="0 0 16.000000 16.000000"
 preserveAspectRatio="xMidYMid meet">
<metadata>
Created by potrace 1.11, written by Peter Selinger 2001-2013
</metadata>
<g transform="translate(0.000000,16.000000) scale(0.001042,-0.001042)"
fill="#000000" stroke="none">
<path d="M6567 15334 c-1 -1 -22 -5 -47 -8 -25 -2 -54 -7 -65 -9 -11 -3 -42
-8 -70 -11 -40 -5 -292 -54 -365 -71 -8 -2 -58 -13 -110 -25 -406 -90 -901
-255 -1330 -443 -239 -104 -658 -316 -702 -355 -10 -8 -18 -11 -18 -7 0 4 -8
1 -17 -7 -16 -13 -102 -65 -226 -137 -173 -100 -721 -494 -843 -606 -6 -5 -33
-28 -60 -50 -345 -282 -787 -740 -1093 -1131 -351 -449 -604 -849 -846 -1333
-110 -221 -118 -238 -190 -406 -25 -60 -50 -119 -55 -130 -89 -203 -278 -778
-335 -1022 -64 -271 -90 -391 -110 -508 -2 -16 -7 -41 -10 -55 -3 -14 -8 -47
-11 -73 l-7 -48 69 44 c174 112 376 183 579 204 80 9 228 8 290 -1 28 -4 67
-9 88 -12 46 -6 198 -49 247 -70 128 -56 281 -146 360 -214 19 -16 37 -26 41
-22 3 4 13 45 23 92 67 331 195 747 332 1077 58 142 262 564 316 653 11 19 50
85 86 145 90 151 277 434 322 488 6 7 45 57 87 112 246 321 616 702 943 971
759 626 1712 1079 2640 1254 155 29 147 24 111 68 -64 82 -145 234 -186 352
-59 167 -79 292 -77 471 3 262 81 515 226 729 32 46 60 88 62 92 4 6 -43 8
-49 2z"/>
<path d="M8766 15258 c307 -446 319 -1028 32 -1486 -23 -37 -53 -78 -65 -92
-26 -28 -29 -40 -10 -41 34 -2 196 -37 382 -82 469 -115 1007 -326 1413 -553
63 -35 116 -64 117 -64 7 0 236 -144 355 -223 131 -88 293 -205 356 -256 17
-15 50 -42 74 -61 324 -262 629 -565 885 -880 39 -47 72 -87 75 -90 11 -10
197 -266 247 -340 349 -515 617 -1078 793 -1664 37 -126 128 -482 135 -531 3
-25 12 -74 25 -140 5 -27 13 -68 16 -90 3 -22 8 -42 10 -44 2 -2 23 14 46 35
133 122 335 232 523 283 77 22 89 24 205 40 65 9 274 7 340 -4 159 -26 348
-92 471 -165 67 -40 85 -47 75 -32 -2 4 -9 41 -15 82 -11 79 -15 104 -31 185
-5 28 -12 64 -15 80 -43 263 -148 666 -264 1016 -69 205 -215 585 -232 604 -5
5 -9 14 -9 21 0 21 -201 438 -289 599 -417 764 -942 1437 -1582 2026 -57 53
-120 109 -139 125 -19 16 -37 31 -40 34 -11 12 -197 167 -235 195 -22 16 -42
33 -45 36 -4 5 -213 161 -320 238 -32 24 -221 150 -266 178 -10 7 -53 33 -94
59 -41 25 -87 55 -102 65 -15 11 -30 19 -33 19 -3 0 -31 16 -61 35 -30 19 -56
35 -58 35 -1 0 -56 30 -122 66 -179 99 -509 259 -681 330 -49 20 -101 42 -118
49 -105 46 -572 211 -652 230 -10 3 -40 11 -68 20 -81 23 -385 104 -414 109
-14 2 -55 11 -91 20 -36 8 -78 17 -94 20 -16 3 -52 10 -80 15 -73 15 -108 22
-131 25 -11 2 -33 6 -50 9 -16 4 -50 9 -75 12 -91 12 -115 16 -133 22 -13 3
-1 -21 39 -79z"/>
<path d="M7565 15283 c-172 -26 -345 -121 -476 -260 -151 -162 -221 -353 -215
-583 2 -63 6 -124 9 -135 22 -86 32 -117 54 -170 107 -254 369 -458 633 -492
266 -34 526 51 706 231 96 96 185 255 220 391 18 72 25 279 12 340 -4 17 -9
41 -12 54 -65 296 -324 548 -632 616 -37 9 -259 15 -299 8z"/>
<path d="M7598 12205 c-2 -2 -22 -6 -46 -10 -224 -33 -454 -196 -576 -408 -36
-63 -74 -164 -91 -246 -19 -88 -14 -275 9 -366 76 -294 307 -525 601 -601 169
-43 406 -19 556 56 239 121 405 337 454 594 15 83 13 256 -5 336 -40 180 -167
376 -314 485 -89 66 -220 124 -331 147 -46 9 -250 19 -257 13z"/>
<path d="M6175 11474 c-531 -210 -984 -510 -1400 -928 -293 -295 -500 -576
-717 -978 -85 -155 -194 -415 -256 -608 -62 -194 -69 -218 -96 -330 -21 -92
-30 -137 -51 -250 -12 -67 -25 -162 -30 -225 -4 -38 -8 -77 -10 -87 -22 -110
-21 -618 0 -773 2 -16 7 -52 9 -80 34 -330 128 -703 262 -1039 57 -143 206
-453 244 -506 11 -15 20 -30 20 -33 0 -17 161 -263 254 -387 136 -184 416
-487 586 -634 366 -319 811 -583 1261 -751 l90 -33 -7 66 c-12 104 -7 278 12
377 48 263 179 516 366 708 31 32 34 39 20 44 -272 92 -584 266 -832 463 -163
130 -383 359 -495 514 -11 16 -34 47 -51 70 -75 101 -216 353 -277 496 -59
138 -132 356 -152 460 -2 8 -8 33 -13 55 -6 22 -14 60 -18 85 -3 25 -8 54 -10
65 -9 62 -24 178 -29 235 -7 70 -7 375 -1 425 4 27 15 127 22 195 1 14 3 25 4
25 1 0 3 15 6 33 20 157 139 567 175 606 5 6 9 16 9 23 0 17 81 184 139 288
61 108 185 291 268 395 72 91 299 323 372 380 24 19 58 46 75 60 199 162 509
336 766 430 l115 41 -81 82 c-178 180 -296 384 -355 616 -35 135 -43 207 -42
354 1 59 -2 107 -5 107 -4 0 -70 -25 -147 -56z"/>
<path d="M9004 11411 c2 -372 -141 -711 -413 -977 l-72 -70 138 -54 c775 -300
1377 -930 1650 -1725 31 -92 90 -320 99 -381 3 -27 8 -52 10 -55 3 -5 18 -121
30 -234 8 -79 8 -386 0 -450 -4 -27 -9 -74 -11 -103 -4 -45 -24 -172 -39 -247
-24 -118 -89 -346 -121 -420 -7 -16 -29 -69 -49 -117 -68 -162 -247 -481 -302
-535 -8 -8 -14 -18 -14 -21 0 -4 -10 -18 -23 -32 -12 -14 -38 -45 -57 -70 -62
-80 -83 -103 -205 -226 -166 -166 -331 -296 -540 -424 -94 -58 -314 -167 -400
-199 -117 -43 -114 -38 -47 -108 266 -281 403 -683 360 -1060 -7 -56 1 -65 40
-43 9 5 60 26 112 46 102 40 193 80 280 124 30 15 71 36 90 45 228 115 548
333 773 526 99 84 376 366 459 466 283 341 499 701 662 1105 58 144 129 355
152 453 1 6 13 57 27 115 14 58 28 123 33 145 4 22 8 45 10 50 4 16 12 67 19
110 3 23 7 50 9 60 2 11 7 49 11 85 3 36 8 76 10 90 23 156 23 632 1 805 -2
17 -7 57 -11 90 -7 64 -14 114 -21 149 -2 11 -7 38 -9 58 -3 21 -12 69 -20
108 -8 38 -17 82 -20 97 -3 16 -14 62 -25 103 -12 41 -23 83 -25 93 -11 48
-58 192 -90 277 -20 52 -38 102 -40 110 -11 47 -148 338 -224 477 -346 635
-899 1199 -1536 1568 -174 100 -525 263 -636 295 l-26 8 1 -107z"/>
<path d="M770 8603 c-64 -8 -168 -38 -228 -64 -242 -109 -431 -342 -478 -591
-2 -13 -6 -34 -9 -48 -11 -53 -6 -218 9 -285 20 -94 38 -143 86 -232 145 -273
436 -440 745 -428 118 4 131 6 210 29 210 62 403 222 500 416 32 64 62 146 70
192 3 12 8 43 13 68 5 25 8 90 6 145 -8 371 -270 695 -632 781 -61 15 -231 25
-292 17z"/>
<path d="M14415 8432 c-68 -7 -185 -43 -260 -80 -293 -144 -472 -440 -460
-762 5 -151 23 -225 82 -348 94 -197 276 -353 493 -423 126 -41 289 -49 422
-19 314 69 559 315 629 630 17 78 20 116 16 215 -3 66 -10 134 -15 150 -5 17
-16 50 -23 75 -7 25 -30 77 -50 117 -116 224 -314 376 -564 433 -50 12 -212
19 -270 12z"/>
<path d="M1600 6699 c-138 -95 -343 -185 -469 -205 -20 -3 -38 -7 -41 -9 -40
-24 -374 -25 -490 -1 -189 40 -368 114 -508 212 -34 24 -65 44 -68 44 -3 0 -3
-17 0 -37 5 -38 9 -66 21 -158 3 -27 10 -72 15 -100 5 -27 12 -66 15 -85 13
-84 37 -207 44 -235 5 -16 12 -48 16 -70 3 -22 15 -78 27 -125 11 -47 21 -92
23 -100 8 -35 56 -214 90 -330 136 -469 376 -1056 599 -1463 19 -34 45 -82 58
-107 13 -25 31 -56 39 -70 9 -14 53 -88 99 -165 486 -817 1163 -1572 1940
-2166 195 -150 479 -344 665 -454 33 -20 78 -47 100 -60 151 -92 478 -264 683
-358 362 -168 927 -370 1230 -442 9 -3 71 -18 137 -35 191 -48 544 -118 680
-135 28 -3 57 -8 65 -10 8 -2 42 -7 75 -10 l60 -6 -26 28 c-14 15 -36 39 -48
53 -113 124 -236 379 -275 570 -35 174 -40 369 -11 510 2 14 7 39 11 55 25
128 101 315 174 431 39 62 40 64 18 69 -13 3 -76 16 -140 30 -136 29 -343 80
-409 101 -25 9 -52 17 -60 18 -41 8 -332 105 -404 136 -11 4 -47 18 -80 31
-55 21 -175 72 -285 121 -83 37 -354 174 -447 226 -580 324 -1135 773 -1583
1282 -41 47 -77 87 -80 90 -14 13 -203 254 -252 320 -213 290 -381 565 -544
890 -84 169 -234 510 -234 533 0 7 -4 17 -9 22 -16 17 -163 470 -196 605 -37
150 -65 271 -69 292 -2 15 -12 63 -20 105 -17 84 -22 112 -32 180 -3 23 -9 43
-13 42 -3 0 -44 -27 -91 -60z"/>
<path d="M13585 6644 c-79 -454 -251 -1026 -421 -1392 -19 -41 -34 -76 -34
-78 0 -3 -42 -89 -94 -192 -354 -707 -781 -1266 -1391 -1822 -411 -375 -1012
-765 -1546 -1003 -388 -173 -846 -320 -1249 -403 -47 -9 -87 -18 -89 -20 -2
-2 7 -18 20 -36 79 -109 162 -307 195 -463 29 -136 37 -314 21 -445 -33 -258
-140 -503 -303 -696 -48 -57 -54 -67 -34 -66 9 0 104 13 130 17 14 2 72 11
130 20 58 9 132 23 165 30 33 8 78 16 99 20 31 4 142 29 276 60 8 2 30 8 48
14 18 5 33 10 35 10 15 -2 299 79 462 131 121 38 442 155 510 185 17 8 91 39
165 70 195 82 547 258 755 377 756 434 1381 943 1980 1612 29 32 184 217 210
251 17 21 42 52 56 69 61 73 265 354 366 506 206 309 336 536 507 885 148 303
226 485 341 805 90 249 224 711 259 890 2 14 11 57 20 95 8 39 17 82 19 95 3
14 8 43 12 65 7 38 9 48 19 93 2 9 7 40 10 67 4 28 10 66 13 85 4 31 3 33 -12
20 -75 -63 -338 -165 -470 -185 -22 -3 -62 -9 -90 -13 -60 -9 -239 -8 -315 2
-266 36 -545 166 -727 339 l-42 40 -6 -39z"/>
<path d="M7523 4819 c-324 -71 -569 -319 -637 -644 -29 -138 -9 -356 44 -480
8 -16 14 -32 14 -35 1 -3 14 -27 30 -55 107 -183 260 -311 449 -376 108 -37
181 -48 302 -44 387 13 713 295 782 675 16 89 8 279 -15 362 -82 294 -297 509
-590 590 -105 28 -269 32 -379 7z"/>
<path d="M7668 1755 c-2 -1 -35 -5 -73 -8 -224 -20 -453 -161 -587 -364 -42
-64 -95 -172 -103 -211 -2 -9 -11 -50 -19 -90 -29 -134 -10 -357 39 -455 8
-16 15 -34 15 -38 0 -5 22 -46 50 -92 52 -86 154 -198 227 -248 212 -147 475
-190 711 -117 365 111 599 437 587 818 -3 110 -11 158 -43 250 -100 287 -369
509 -662 546 -55 7 -138 12 -142 9z"/>
</g>
</svg>
